<svg xmlns="http://www.w3.org/2000/svg" viewBox="0 0 454.43 405.39"><defs><style>.cls-1{fill:#af9270;}</style></defs><title>Icone</title><g id="Camada_2" data-name="Camada 2"><g id="Camada_1-2" data-name="Camada 1"><g id="Camada_2-2" data-name="Camada 2"><g id="Camada_1-2-2" data-name="Camada 1-2"><path class="cls-1" d="M236.44,202.5V6.71c0-4.78,1.77-6.55,6.52-6.55H446.68c5.65,0,7.75,2,7.75,7.57V397.19c0,5.62-2.47,8.06-8.18,8.06H243.73c-5.93,0-7.39-1.37-7.39-7.27q0-93.54.1-187ZM315.52,19.7a11.74,11.74,0,0,0-.29,1.57c-.42,11.44-1.4,22.89-1.12,34.3.68,27.57,9.69,52.33,26.8,74.14,10.07,12.84,20.55,25.41,29.92,38.75,15.57,22.16,25.45,46.73,28.48,73.78,2.41,21.44.54,42.77-1.71,64.08-1.58,14.9-3.49,29.77-2.67,44.81.61,11.26,2.93,22.07,8.6,32a3.92,3.92,0,0,0,4.07,2.28c4.25-.17,8.5-.06,12.75-.07h14.17v-3.62c-.06-37.42,0-74.83-.23-112.24-.1-18-1-35.93-4.06-53.75-5-28.58-15.2-54.9-32.3-78.51C392,129.07,386,121,380.45,112.59c-16.72-25.07-23.8-52.53-20.08-82.54.43-3.44,1.2-6.85,1.83-10.37Zm67.85,365.66c-.73-1.86-1.29-3.25-1.82-4.64-6.46-17-6.54-34.63-5.19-52.36,1.44-18.83,3.42-37.63,4.73-56.47a137.91,137.91,0,0,0-15.76-75.42c-7.91-15-18.34-28.14-29-41.14-9.87-12-19.36-24.25-26.35-38.21C297.1,91.52,293.4,64.2,294.43,36c.19-5.39.55-10.77.83-16.25H255.85V23c.05,13.08-.36,26.17.3,39.21s1.43,26.37,3.88,39.23c4.23,22.16,14.52,41.86,28.18,59.79,11.6,15.23,23.5,30.23,34.91,45.59a147.24,147.24,0,0,1,24.45,49.15c6,21.7,4.75,43.55,2.14,65.54-1.56,13.25-2.79,26.59-3.14,39.92-.19,7.11,1.73,14.3,2.89,21.42.16,1,1.45,2.44,2.24,2.46C362.1,385.41,372.53,385.36,383.37,385.36ZM256,147q0,32.55.08,65.1a6.84,6.84,0,0,0,1.84,3.89,186.94,186.94,0,0,1,29.42,46.17c7.71,17.24,11.9,35.26,10.43,54.18-1.07,13.7-3.11,27.32-4.51,41a80,80,0,0,0,1.61,27.84h35.51a102.3,102.3,0,0,1-2.8-31.95c1.21-16.32,3-32.59,4.53-48.89,1.23-13.08,1-26.09-1.91-39-4-17.76-12.68-33.31-23.13-48C290.31,193.72,269.53,173,256,147ZM434.85,19.74a14.86,14.86,0,0,0-1.62-.18q-24,0-48-.07c-2.11,0-2.5,1.1-3,2.6-5.76,19-4.44,37.71,2,56.24,4.67,13.48,12.93,24.94,21.21,36.36,10.4,14.36,20.45,28.93,28,45,.26.55.62,1.05,1.39,2.34Zm-160,365.48c-.44-6.08-1.52-11.83-1.14-17.48.85-12.51,2.24-25,3.79-37.45s2.39-24.8-.09-37.2c-3.31-16.72-10.89-31.66-19.65-46.08-.43-.71-1-1.38-1.78-2.56V385.22Z"></path><path class="cls-1" d="M218.18,202.76V397.92c0,6-1.35,7.47-7.44,7.47H146.19c-6.21,0-8.15-2.19-8.36-8.36-.24-7,0-14.15-1.32-21C134,363,125.51,355,112.64,351.72c-2-.52-4.39-.16-6.56.1-15.34,1.86-30.64,2.81-45.75-1.64C54,348.32,48,345.89,42.92,341.53a27.43,27.43,0,0,1-10-20.83,140.42,140.42,0,0,1,.92-16.53c.43-4.54,0-8.6-2.71-12.59-4.22-6.27-5.8-13.19-3-20.63a2.45,2.45,0,0,0-.28-2.06c-6.73-7.8-6.49-16.42-3.26-25.48,2.64-7.41,2.52-7.21-5-9.76a39.5,39.5,0,0,1-10.94-5.42c-8.21-6.14-10.76-15.77-6.85-25.3A63.06,63.06,0,0,1,8.1,192c4.63-6.94,9.52-13.7,14.26-20.56C31,159,35.36,145.87,34.45,130,32.1,85.16,51,50.5,88.28,25.78,106.86,13.45,127.54,6.7,149.45,3.34A307.68,307.68,0,0,1,196.63.28c4.72,0,9.47-.14,14.17-.27,5.63-.13,7.3,1.4,7.3,7q.06,64.86.11,129.71Q218.21,169.72,218.18,202.76ZM198.33,19.59c-1.55,0-2.64-.06-3.73,0-12.73.8-25.52,1.07-38.17,2.57C136.67,24.49,118,30.5,101,41.16,68.8,61.26,52.36,90,53.16,128.36c.16,7.81.22,15.75-1,23.41-1.7,10.67-7.21,20-13.24,28.81-5.88,8.63-12,17.1-18.07,25.62-3.83,5.38-2,9.37,4.36,10.39,17.52,2.85,23.47,17.55,18.16,30.64a40.24,40.24,0,0,0-1.39,4c-1.81,6.08-1.23,7.23,4.64,9.35a12.19,12.19,0,0,1,1.41.53c2.54,1.14,5,2.43,5.25,5.62s-1.47,5.56-3.93,7.33c-4.7,3.4-5,4.91-1.45,9.67,3.31,4.42,5.31,9.24,4.93,14.83q-.63,9-1.45,18c-.6,6.49,2.38,10.74,8.06,13.43a50.12,50.12,0,0,0,21.36,4.55c21.91.1,43.27-3.22,63.5-12,22.48-9.78,39.33-25.4,48.8-48.37,4.33-10.5,5.56-21.53,5.54-32.76q-.15-109.07-.31-218.12Zm0,285.42c-15.75,19.85-35.81,32.76-60.32,39.8,13.31,10.62,18.07,24.68,18.65,40.49h41.67Z"></path></g></g></g></g></svg>